<?xml version="1.0" encoding="UTF-8" ?>
<!DOCTYPE svg PUBLIC "-//W3C//DTD SVG 1.1//EN" "http://www.w3.org/Graphics/SVG/1.1/DTD/svg11.dtd">
<svg width="2307pt" height="349pt" viewBox="0 0 2307 349" version="1.1" xmlns="http://www.w3.org/2000/svg">
<g id="#013f7cff">
<path fill="#013f7c" opacity="1.00" d=" M 160.56 0.00 L 171.60 0.00 C 192.34 2.70 212.32 11.18 228.52 24.43 C 250.54 42.15 265.62 68.43 269.31 96.49 C 271.13 106.14 271.10 116.06 270.37 125.83 C 267.24 144.28 260.63 162.37 249.70 177.66 C 233.77 200.29 209.30 216.73 182.28 222.77 C 211.96 264.15 241.68 305.50 271.32 346.90 C 250.91 347.00 230.51 346.92 210.10 346.95 C 180.74 306.19 151.54 265.31 122.21 224.53 C 102.44 224.61 82.67 224.52 62.90 224.58 C 62.89 242.10 62.90 259.63 62.89 277.15 C 42.46 277.16 22.03 277.16 1.59 277.15 C 1.58 231.94 1.59 186.72 1.59 141.50 C 22.03 141.50 42.46 141.49 62.90 141.51 C 62.90 151.97 62.88 162.43 62.91 172.90 C 96.29 172.80 129.66 173.15 163.03 173.03 C 181.73 172.76 199.76 162.69 210.50 147.49 C 217.85 137.26 221.89 124.66 221.73 112.05 C 221.87 94.94 214.10 78.03 201.28 66.75 C 190.21 56.72 175.39 51.51 160.55 51.16 C 160.57 34.10 160.56 17.05 160.56 0.00 Z" />
<path fill="#013f7c" opacity="1.00" d=" M 1859.69 0.00 L 1893.90 0.00 C 1896.96 4.78 1895.38 10.68 1895.75 16.00 C 1895.46 20.99 1897.05 27.08 1892.96 30.96 C 1890.70 33.52 1887.03 32.96 1884.00 33.04 C 1877.34 32.85 1870.67 33.24 1864.03 32.88 C 1861.45 32.81 1859.22 30.79 1858.72 28.31 C 1857.85 24.26 1858.34 20.08 1858.25 15.98 C 1858.38 10.64 1857.51 5.06 1859.69 0.00 Z" />
<path fill="#013f7c" opacity="1.00" d=" M 1811.40 13.49 C 1814.26 12.44 1818.56 12.82 1819.69 16.17 C 1821.02 20.32 1820.22 24.71 1820.25 28.97 C 1820.22 35.05 1820.28 41.13 1820.23 47.21 C 1825.12 47.38 1830.03 47.05 1834.93 47.36 C 1838.26 47.58 1840.61 50.79 1840.47 54.03 C 1840.50 61.00 1840.60 67.98 1840.42 74.95 C 1840.48 78.34 1837.47 81.35 1834.08 81.22 C 1829.46 81.36 1824.85 81.19 1820.25 81.25 C 1820.25 103.17 1820.25 125.08 1820.25 146.99 C 1820.27 153.00 1820.98 159.06 1820.15 165.05 C 1819.77 168.53 1816.13 170.39 1812.95 170.42 C 1806.31 170.65 1799.67 170.40 1793.04 170.53 C 1790.35 170.46 1787.34 170.68 1785.10 168.96 C 1782.97 167.34 1782.76 164.45 1782.74 161.99 C 1782.76 135.08 1782.74 108.16 1782.75 81.25 C 1778.83 81.20 1774.91 81.41 1771.02 81.16 C 1767.72 81.06 1765.39 77.88 1765.33 74.76 C 1765.12 68.14 1765.29 61.52 1765.25 54.90 C 1765.07 51.74 1766.59 47.96 1770.12 47.50 C 1774.28 46.95 1778.51 47.35 1782.71 47.28 C 1782.91 40.51 1782.49 33.73 1782.90 26.98 C 1783.23 23.71 1786.68 22.32 1789.33 21.22 C 1796.66 18.58 1804.05 16.08 1811.40 13.49 Z" />
<path fill="#013f7c" opacity="1.00" d=" M 1014.65 25.69 C 1016.66 28.55 1018.35 31.70 1020.93 34.11 C 1023.69 36.42 1027.06 37.79 1030.30 39.28 C 1028.94 38.98 1027.60 38.64 1026.28 38.28 C 1025.78 38.19 1024.78 38.02 1024.28 37.94 C 1023.85 37.57 1022.99 36.84 1022.56 36.47 C 1019.83 34.87 1017.66 32.52 1016.08 29.80 C 1015.63 28.42 1015.14 27.05 1014.65 25.69 Z" />
<path fill="#013f7c" opacity="1.00" d=" M 413.01 30.90 C 412.64 28.53 414.56 26.08 417.08 26.52 C 438.04 26.45 458.99 26.54 479.95 26.48 C 496.53 26.16 512.80 35.52 521.15 49.80 C 527.49 60.27 529.27 73.32 526.17 85.13 C 522.98 97.27 514.54 107.66 503.79 113.99 C 512.57 130.62 521.31 147.28 530.16 163.87 C 531.14 165.61 531.80 167.75 530.48 169.53 C 528.53 170.72 526.16 170.47 523.98 170.53 C 514.32 170.45 504.66 170.55 495.01 170.50 C 493.06 170.55 490.82 170.01 489.99 168.05 C 482.04 152.93 474.01 137.85 466.04 122.75 C 460.94 122.75 455.85 122.74 450.75 122.75 C 450.69 137.18 450.84 151.61 450.69 166.04 C 450.80 168.26 449.28 170.45 446.88 170.37 C 437.61 170.70 428.32 170.39 419.04 170.52 C 416.66 170.68 412.98 170.20 413.04 167.08 C 412.95 121.69 413.01 76.29 413.01 30.90 M 450.77 56.24 C 450.75 68.08 450.68 79.93 450.81 91.78 C 459.52 91.40 468.40 92.62 476.96 90.61 C 485.48 88.28 490.27 78.34 488.13 70.03 C 486.52 63.35 480.86 57.47 473.86 56.70 C 466.19 55.88 458.47 56.40 450.77 56.24 Z" />
<path fill="#013f7c" opacity="1.00" d=" M 1038.03 39.00 C 1038.85 38.00 1039.88 37.62 1041.14 37.88 C 1040.62 39.27 1039.58 39.64 1038.03 39.00 Z" />
<path fill="#013f7c" opacity="1.00" d=" M 1030.89 39.48 C 1032.87 38.62 1035.11 38.61 1037.14 39.44 L 1036.85 39.62 C 1035.05 40.50 1032.91 40.53 1031.16 39.60 L 1030.89 39.48 Z" />
<path fill="#013f7c" opacity="1.00" d=" M 2233.56 45.72 C 2243.51 44.10 2253.98 44.32 2263.58 47.66 C 2271.96 50.64 2279.22 56.20 2285.25 62.65 C 2286.96 64.31 2288.15 67.26 2286.10 69.15 C 2281.26 73.62 2276.02 77.64 2271.39 82.32 C 2269.54 84.55 2266.04 85.12 2263.81 83.16 C 2261.15 80.80 2258.73 77.95 2255.24 76.83 C 2250.06 75.13 2243.97 74.19 2238.98 76.87 C 2235.83 78.40 2235.44 82.90 2237.85 85.25 C 2240.34 87.56 2243.79 88.34 2247.02 89.11 C 2254.74 90.63 2262.07 93.64 2269.25 96.83 C 2278.38 100.99 2286.69 108.07 2290.15 117.74 C 2294.68 131.11 2292.93 147.37 2282.95 157.92 C 2274.36 167.38 2261.47 171.63 2249.02 172.67 C 2232.55 174.20 2214.83 170.07 2202.53 158.53 C 2199.64 155.55 2196.16 152.42 2195.72 148.04 C 2195.38 143.05 2200.56 140.69 2203.31 137.33 C 2206.85 134.40 2209.36 129.59 2214.03 128.42 C 2217.98 129.51 2220.28 133.30 2223.65 135.40 C 2229.10 138.87 2235.38 141.73 2242.00 141.28 C 2245.61 141.08 2249.51 140.71 2252.56 138.52 C 2256.39 135.88 2255.83 129.35 2251.85 127.11 C 2247.65 124.50 2242.65 123.73 2238.03 122.16 C 2226.87 119.06 2215.50 114.22 2207.99 105.04 C 2202.21 98.10 2200.17 88.82 2200.46 79.95 C 2200.27 71.16 2204.07 62.42 2210.50 56.45 C 2216.84 50.58 2225.12 47.19 2233.56 45.72 Z" />
<path fill="#013f7c" opacity="1.00" d=" M 558.68 64.67 C 570.52 52.17 587.77 45.00 604.99 45.46 C 618.17 45.25 631.25 51.76 638.77 62.64 C 640.64 57.87 641.55 52.65 644.33 48.30 C 647.59 45.83 652.17 47.44 655.98 47.00 C 660.52 47.49 666.27 45.46 669.81 49.27 C 671.40 50.72 671.46 53.01 671.51 55.01 C 671.48 91.00 671.52 127.00 671.49 162.99 C 671.96 167.21 668.11 170.73 664.00 170.46 C 657.02 170.47 650.01 170.72 643.04 170.31 C 637.61 169.63 637.29 163.03 635.75 158.94 C 626.78 167.56 614.61 173.44 601.98 172.67 C 586.46 172.15 571.09 165.84 560.12 154.78 C 547.87 142.97 540.88 125.95 541.22 108.95 C 540.86 92.66 547.35 76.36 558.68 64.67 M 598.53 78.71 C 589.81 80.43 582.45 86.90 579.06 95.03 C 573.06 108.66 576.45 127.28 589.80 135.28 C 603.71 143.92 623.84 137.60 630.99 123.06 C 637.88 110.38 633.99 93.26 622.55 84.58 C 615.88 79.25 606.90 77.09 598.53 78.71 Z" />
<path fill="#013f7c" opacity="1.00" d=" M 740.58 46.76 C 758.32 43.14 777.74 46.68 792.19 57.86 C 794.99 60.11 795.28 64.50 793.34 67.39 C 790.35 72.44 787.39 77.49 784.38 82.52 C 782.81 85.34 779.25 87.52 776.06 86.09 C 772.62 84.60 769.66 82.18 766.15 80.83 C 757.06 76.70 745.53 77.22 737.65 83.70 C 723.94 94.61 722.28 117.12 733.69 130.24 C 739.65 137.07 749.26 140.45 758.19 138.81 C 763.69 137.94 768.63 135.20 773.25 132.22 C 776.32 130.01 781.24 130.36 783.21 133.87 C 787.01 139.70 790.96 145.45 794.72 151.31 C 796.40 153.57 796.03 157.04 793.66 158.68 C 783.19 166.75 770.31 171.98 757.04 172.62 C 741.44 173.47 725.56 168.34 713.58 158.27 C 701.34 148.41 693.44 133.64 691.26 118.15 C 689.24 103.09 692.31 87.27 700.55 74.43 C 709.43 60.30 724.26 50.16 740.58 46.76 Z" />
<path fill="#013f7c" opacity="1.00" d=" M 839.40 54.24 C 854.58 44.76 874.15 42.70 890.97 48.84 C 914.40 57.07 932.14 80.85 930.92 106.04 C 930.54 109.92 931.51 114.50 928.68 117.67 C 925.73 120.12 921.62 120.11 917.99 120.26 C 893.94 120.24 869.89 120.25 845.84 120.25 C 846.95 128.40 852.50 135.66 860.05 138.91 C 871.13 143.87 884.28 141.42 894.48 135.48 C 897.78 133.66 900.85 128.77 905.10 130.80 C 909.92 133.89 912.96 138.98 916.97 142.98 C 919.76 145.54 922.31 150.00 919.37 153.43 C 910.72 162.37 899.33 168.74 887.12 171.21 C 870.26 174.39 852.18 170.81 837.99 161.10 C 824.96 152.42 815.36 138.72 811.68 123.50 C 805.34 97.68 816.44 68.16 839.40 54.24 M 865.80 75.72 C 857.39 78.11 851.11 85.00 847.05 92.47 C 863.39 92.52 879.72 92.51 896.06 92.48 C 893.47 88.03 890.61 83.59 886.53 80.36 C 880.81 75.73 872.92 74.25 865.80 75.72 Z" />
<path fill="#013f7c" opacity="1.00" d=" M 1112.47 62.94 C 1118.22 53.69 1128.65 48.62 1139.01 46.46 C 1151.33 44.15 1164.92 45.38 1175.44 52.70 C 1189.97 62.29 1196.83 80.10 1197.22 96.98 C 1197.29 118.97 1197.24 140.96 1197.24 162.96 C 1197.27 165.75 1196.25 169.46 1193.08 170.05 C 1188.43 170.91 1183.68 170.36 1179.00 170.50 C 1174.03 170.36 1168.98 170.95 1164.08 169.91 C 1161.37 169.37 1160.63 166.32 1160.75 163.96 C 1160.75 144.98 1160.74 126.00 1160.76 107.02 C 1160.71 102.76 1161.13 98.33 1159.55 94.27 C 1156.50 86.73 1149.19 81.05 1141.12 80.06 C 1128.75 78.89 1117.00 90.67 1117.73 102.99 C 1117.77 123.03 1117.74 143.06 1117.75 163.10 C 1118.04 166.52 1115.64 170.09 1112.02 170.22 C 1105.03 170.85 1098.00 170.33 1091.00 170.52 C 1087.91 170.35 1084.10 170.72 1081.94 168.06 C 1080.49 166.40 1080.47 164.11 1080.47 162.04 C 1080.53 126.34 1080.49 90.64 1080.49 54.93 C 1080.15 51.71 1082.25 48.41 1085.47 47.69 C 1089.92 46.87 1094.48 47.39 1098.98 47.23 C 1102.16 47.28 1106.10 46.86 1108.30 49.71 C 1110.89 53.63 1111.40 58.46 1112.47 62.94 Z" />
<path fill="#013f7c" opacity="1.00" d=" M 1252.19 62.78 C 1258.37 53.44 1269.05 48.21 1279.82 46.25 C 1291.86 44.24 1305.00 45.58 1315.21 52.72 C 1329.74 62.30 1336.54 80.09 1336.95 96.95 C 1337.08 118.30 1336.94 139.66 1337.02 161.01 C 1336.96 163.54 1337.06 166.35 1335.42 168.46 C 1333.94 170.42 1331.21 170.31 1329.03 170.49 C 1322.69 170.55 1316.35 170.47 1310.02 170.51 C 1307.53 170.39 1304.86 170.56 1302.60 169.40 C 1300.73 168.30 1300.51 165.91 1300.49 163.97 C 1300.50 142.98 1300.50 121.99 1300.50 101.00 C 1300.55 88.21 1286.85 77.47 1274.45 80.50 C 1265.16 83.19 1257.26 92.05 1257.49 102.03 C 1257.52 122.34 1257.49 142.66 1257.51 162.98 C 1257.69 166.00 1256.09 169.36 1252.91 170.00 C 1247.32 171.01 1241.60 170.29 1235.96 170.51 C 1232.00 170.42 1227.93 170.88 1224.09 169.77 C 1221.35 168.86 1220.06 165.78 1220.24 163.07 C 1220.28 126.71 1220.22 90.34 1220.27 53.97 C 1220.14 50.40 1223.44 47.40 1226.93 47.39 C 1231.96 47.10 1237.02 47.25 1242.07 47.27 C 1244.78 47.16 1247.65 48.44 1248.85 50.99 C 1250.65 54.69 1251.29 58.80 1252.19 62.78 Z" />
<path fill="#013f7c" opacity="1.00" d=" M 1407.41 46.55 C 1424.48 43.35 1442.89 46.86 1457.03 57.14 C 1472.43 68.00 1482.39 86.16 1483.28 104.99 C 1484.65 124.56 1476.49 144.61 1461.51 157.35 C 1448.87 168.37 1431.73 173.86 1415.05 172.52 C 1396.93 171.37 1379.44 162.03 1368.69 147.36 C 1356.04 130.65 1352.72 107.61 1359.58 87.88 C 1366.53 66.78 1385.56 50.43 1407.41 46.55 M 1414.48 78.62 C 1406.66 79.88 1399.87 85.15 1396.04 91.98 C 1388.99 104.46 1390.31 122.01 1400.96 132.10 C 1411.37 142.03 1429.96 141.55 1439.37 130.46 C 1450.53 117.19 1449.14 94.52 1435.43 83.49 C 1429.63 78.78 1421.73 77.35 1414.48 78.62 Z" />
<path fill="#013f7c" opacity="1.00" d=" M 1637.24 67.23 C 1651.31 50.53 1674.77 42.07 1696.19 46.68 C 1705.75 48.75 1713.82 54.86 1719.83 62.39 C 1721.43 57.85 1722.47 53.05 1724.91 48.86 C 1726.04 46.62 1728.83 47.09 1730.93 46.97 C 1735.97 47.06 1741.02 46.88 1746.07 47.05 C 1749.74 47.08 1752.64 50.59 1752.48 54.17 C 1752.54 90.11 1752.47 126.04 1752.51 161.98 C 1752.70 165.23 1751.38 168.92 1748.00 169.95 C 1743.40 171.00 1738.65 170.32 1734.00 170.50 C 1729.80 170.26 1725.29 171.27 1721.38 169.44 C 1718.32 166.84 1717.89 162.50 1716.69 158.90 C 1708.91 166.32 1698.91 171.84 1688.04 172.59 C 1672.04 173.49 1655.75 167.89 1643.70 157.31 C 1631.19 146.49 1623.33 130.55 1622.23 114.06 C 1620.79 97.27 1626.21 80.00 1637.24 67.23 M 1680.42 78.53 C 1670.84 80.03 1662.75 87.31 1659.46 96.32 C 1654.42 109.32 1657.46 126.33 1669.48 134.48 C 1682.34 143.50 1701.70 138.93 1710.19 126.00 C 1718.05 114.58 1716.64 97.95 1707.08 87.93 C 1700.50 80.57 1690.16 76.94 1680.42 78.53 Z" />
<path fill="#013f7c" opacity="1.00" d=" M 1965.52 46.69 C 1982.28 43.37 2000.42 46.50 2014.57 56.28 C 2029.79 66.48 2040.09 83.73 2041.82 101.98 C 2043.81 119.38 2038.34 137.55 2026.84 150.79 C 2015.97 163.57 1999.75 171.56 1983.02 172.55 C 1964.48 173.90 1945.42 166.92 1932.56 153.41 C 1921.27 141.62 1914.67 125.35 1914.97 108.99 C 1914.61 90.51 1923.04 72.10 1937.23 60.26 C 1945.28 53.40 1955.17 48.81 1965.52 46.69 M 1972.56 78.74 C 1965.05 80.24 1958.53 85.33 1954.82 91.96 C 1947.84 104.31 1949.09 121.50 1959.31 131.72 C 1969.73 142.04 1988.79 141.74 1998.29 130.30 C 2008.55 117.90 2007.86 97.81 1997.03 85.96 C 1990.87 79.41 1981.25 76.91 1972.56 78.74 Z" />
<path fill="#013f7c" opacity="1.00" d=" M 2093.34 62.79 C 2099.29 53.27 2110.18 48.23 2120.88 46.24 C 2131.56 44.54 2143.05 45.24 2152.67 50.58 C 2164.60 56.89 2172.66 68.98 2175.82 81.91 C 2178.67 92.37 2177.90 103.28 2178.00 113.99 C 2178.00 130.01 2177.99 146.03 2178.01 162.04 C 2178.03 164.85 2177.60 168.39 2174.75 169.75 C 2170.61 171.01 2166.21 170.36 2161.96 170.50 C 2156.31 170.33 2150.61 170.95 2145.03 170.00 C 2142.22 169.57 2141.35 166.50 2141.50 164.07 C 2141.50 144.73 2141.48 125.39 2141.51 106.05 C 2141.54 101.53 2141.73 96.72 2139.54 92.60 C 2135.21 84.07 2125.02 78.09 2115.43 80.50 C 2106.12 83.15 2098.24 92.06 2098.49 102.02 C 2098.52 122.03 2098.47 142.04 2098.52 162.04 C 2098.52 164.31 2098.26 166.84 2096.61 168.54 C 2094.59 170.41 2091.65 170.40 2089.09 170.51 C 2082.72 170.49 2076.35 170.55 2069.98 170.48 C 2067.48 170.32 2064.54 170.32 2062.83 168.21 C 2061.04 166.25 2061.07 163.43 2060.99 160.95 C 2060.99 126.32 2061.02 91.68 2060.98 57.05 C 2060.95 54.32 2061.12 51.20 2063.34 49.25 C 2065.31 47.23 2068.33 47.33 2070.97 47.24 C 2075.31 47.28 2079.68 47.12 2084.04 47.33 C 2086.44 47.40 2088.79 48.81 2089.83 51.02 C 2091.64 54.72 2092.18 58.86 2093.34 62.79 Z" />
<path fill="#013f7c" opacity="1.00" d=" M 1494.53 48.64 C 1496.40 47.28 1498.81 47.50 1501.01 47.47 C 1508.96 47.58 1516.92 47.41 1524.88 47.53 C 1527.98 47.52 1530.54 49.98 1531.28 52.90 C 1538.24 74.59 1544.87 96.41 1552.39 117.91 C 1559.11 96.43 1565.78 74.93 1572.52 53.45 C 1573.33 50.46 1575.54 47.31 1579.02 47.53 C 1588.64 47.50 1598.28 47.40 1607.91 47.58 C 1610.71 47.50 1613.14 50.13 1612.16 52.95 C 1610.92 57.73 1608.49 62.11 1606.76 66.73 C 1593.09 99.46 1579.44 132.20 1565.79 164.93 C 1564.67 167.75 1562.39 170.64 1559.04 170.47 C 1554.08 170.51 1549.10 170.65 1544.16 170.38 C 1541.29 170.33 1539.17 168.04 1538.33 165.49 C 1523.44 129.00 1508.54 92.52 1493.61 56.05 C 1492.69 53.66 1492.46 50.51 1494.53 48.64 Z" />
<path fill="#013f7c" opacity="1.00" d=" M 1861.43 48.39 C 1863.05 47.35 1865.08 47.55 1866.96 47.47 C 1873.63 47.53 1880.32 47.48 1887.01 47.49 C 1891.59 47.06 1896.16 51.23 1895.75 55.92 C 1895.72 91.64 1895.78 127.36 1895.73 163.07 C 1895.94 166.57 1893.57 170.15 1889.88 170.37 C 1882.58 170.73 1875.27 170.36 1867.97 170.53 C 1865.34 170.43 1862.24 170.85 1860.22 168.83 C 1858.42 167.05 1858.27 164.37 1858.24 162.00 C 1858.26 126.65 1858.26 91.30 1858.24 55.95 C 1858.20 53.17 1858.94 49.99 1861.43 48.39 Z" />
</g>
<g id="#313131fe">
<path fill="#313131" opacity="1.00" d=" M 1026.69 0.00 L 1041.55 0.00 C 1045.83 1.94 1049.60 5.05 1051.84 9.24 C 1052.39 10.33 1052.96 11.42 1053.55 12.51 C 1054.34 17.13 1054.30 21.91 1053.58 26.54 C 1051.57 30.37 1049.44 34.42 1045.42 36.48 C 1044.98 36.90 1044.10 37.72 1043.66 38.13 C 1043.03 38.07 1041.77 37.94 1041.14 37.88 C 1039.88 37.62 1038.85 38.00 1038.03 39.00 L 1037.14 39.44 C 1035.11 38.61 1032.87 38.62 1030.89 39.48 L 1030.30 39.28 C 1027.06 37.79 1023.69 36.42 1020.93 34.11 C 1018.35 31.70 1016.66 28.55 1014.65 25.69 C 1014.52 25.38 1014.26 24.75 1014.13 24.44 C 1013.83 20.46 1013.71 16.41 1014.42 12.46 C 1016.50 8.17 1019.25 4.19 1023.31 1.52 C 1024.43 1.04 1025.56 0.53 1026.69 0.00 Z" />
<path fill="#313131" opacity="1.00" d=" M 971.58 205.57 C 974.79 205.02 978.16 204.99 981.38 205.57 C 982.00 208.39 982.09 211.48 981.23 214.26 C 978.19 215.74 974.64 214.86 971.43 214.58 C 971.31 211.58 970.89 208.52 971.58 205.57 Z" />
<path fill="#313131" opacity="1.00" d=" M 1362.42 205.50 C 1365.53 205.06 1368.72 205.08 1371.85 205.44 C 1372.98 208.15 1372.97 211.90 1371.63 214.59 C 1369.43 215.15 1367.13 215.12 1364.91 214.99 C 1360.19 215.12 1362.14 208.46 1362.42 205.50 Z" />
<path fill="#313131" opacity="1.00" d=" M 1894.18 205.44 C 1897.42 204.96 1900.73 205.21 1903.99 205.62 C 1903.83 208.50 1904.51 211.59 1903.40 214.34 C 1900.41 215.25 1896.38 215.76 1893.72 214.00 C 1893.54 211.22 1892.79 207.93 1894.18 205.44 Z" />
<path fill="#313131" opacity="1.00" d=" M 950.32 212.34 C 953.27 210.93 956.40 209.60 959.70 209.26 C 961.25 212.14 960.25 215.70 960.46 218.87 C 962.16 219.02 963.97 218.80 965.62 219.40 C 966.88 222.12 966.04 225.31 966.05 228.21 C 964.20 228.37 962.33 228.50 960.50 228.62 C 960.41 236.40 960.67 244.18 960.40 251.95 C 960.34 254.18 957.48 253.67 956.01 253.82 C 954.11 253.59 951.72 254.35 950.18 253.03 C 949.80 244.90 950.10 236.73 949.71 228.59 C 948.16 228.48 946.61 228.36 945.09 228.22 C 945.01 225.45 944.84 222.67 945.10 219.90 C 946.23 218.54 948.24 219.14 949.80 218.81 C 949.92 216.65 949.86 214.46 950.32 212.34 Z" />
<path fill="#313131" opacity="1.00" d=" M 1163.31 212.34 C 1166.26 210.93 1169.38 209.62 1172.66 209.25 C 1174.28 212.09 1173.24 215.68 1173.44 218.83 C 1175.17 218.97 1176.95 218.90 1178.67 219.37 C 1179.79 222.17 1179.08 225.28 1179.06 228.21 C 1177.20 228.36 1175.33 228.50 1173.50 228.62 C 1173.28 236.79 1173.95 245.01 1173.18 253.13 C 1170.07 254.02 1166.09 254.41 1163.17 253.02 C 1162.82 244.89 1163.09 236.73 1162.71 228.59 C 1161.15 228.47 1159.61 228.35 1158.08 228.22 C 1158.12 225.28 1157.54 222.21 1158.41 219.37 C 1159.83 218.99 1161.32 218.95 1162.80 218.80 C 1162.92 216.64 1162.86 214.46 1163.31 212.34 Z" />
<path fill="#313131" opacity="1.00" d=" M 1341.31 212.35 C 1344.28 210.98 1347.41 209.48 1350.73 209.32 C 1352.24 212.18 1351.25 215.72 1351.45 218.86 C 1353.26 219.20 1355.69 218.35 1357.03 219.98 C 1357.43 222.58 1357.42 225.27 1356.91 227.86 C 1355.31 228.88 1353.26 228.36 1351.50 228.61 C 1351.27 236.77 1351.95 244.99 1351.18 253.11 C 1348.08 254.08 1344.15 254.35 1341.18 253.08 C 1340.81 244.93 1341.09 236.75 1340.71 228.59 C 1339.15 228.48 1337.61 228.36 1336.09 228.23 C 1336.15 225.32 1335.49 222.22 1336.42 219.42 C 1337.79 218.89 1339.33 218.99 1340.81 218.79 C 1340.92 216.64 1340.86 214.46 1341.31 212.35 Z" />
<path fill="#313131" opacity="1.00" d=" M 1612.22 213.06 C 1612.34 211.71 1611.92 210.05 1612.98 208.98 C 1616.04 208.51 1619.16 208.78 1622.26 208.78 C 1623.35 218.80 1622.46 228.94 1622.75 239.01 C 1622.44 243.74 1623.42 248.68 1622.22 253.28 C 1619.95 254.18 1617.37 253.70 1615.00 253.77 C 1613.76 253.96 1612.21 253.39 1612.32 251.93 C 1612.12 238.98 1612.34 226.01 1612.22 213.06 Z" />
<path fill="#313131" opacity="1.00" d=" M 1806.52 212.50 C 1809.48 211.16 1812.50 209.78 1815.74 209.21 C 1818.26 211.47 1816.49 215.79 1817.00 218.90 C 1818.71 219.24 1820.97 218.47 1822.39 219.72 C 1822.91 222.46 1823.23 225.62 1822.06 228.21 C 1820.40 228.56 1818.71 228.48 1817.07 228.53 C 1816.92 235.35 1817.02 242.18 1817.03 249.00 C 1816.84 250.46 1817.27 252.22 1816.27 253.44 C 1813.56 253.96 1810.76 253.85 1808.04 253.69 C 1806.54 253.92 1806.47 252.01 1806.50 251.03 C 1806.54 243.57 1806.46 236.12 1806.21 228.66 C 1804.70 228.52 1803.22 228.53 1801.80 228.11 C 1801.14 225.14 1801.51 222.09 1801.75 219.10 C 1803.25 219.04 1804.77 219.00 1806.31 218.95 C 1806.39 216.80 1806.46 214.65 1806.52 212.50 Z" />
<path fill="#313131" opacity="1.00" d=" M 1872.39 212.32 C 1875.19 211.21 1877.97 209.92 1880.95 209.33 C 1882.61 208.88 1882.67 210.82 1882.73 211.93 C 1882.82 214.24 1882.74 216.56 1882.74 218.88 C 1884.46 218.98 1886.22 219.00 1887.96 219.32 C 1889.02 222.17 1888.35 225.29 1888.23 228.25 C 1886.36 228.40 1884.55 228.52 1882.72 228.65 C 1882.48 236.85 1883.34 245.16 1882.31 253.28 C 1879.60 254.07 1876.71 253.83 1873.96 253.68 C 1871.79 253.98 1872.38 251.39 1872.23 250.05 C 1872.31 242.88 1872.23 235.71 1871.89 228.55 C 1870.42 228.25 1868.52 228.96 1867.44 227.78 C 1867.06 225.04 1867.03 222.22 1867.51 219.49 C 1868.89 218.87 1870.49 219.05 1872.02 218.86 C 1872.15 216.68 1872.25 214.50 1872.39 212.32 Z" />
<path fill="#313131" opacity="1.00" d=" M 733.24 215.95 C 733.30 214.70 732.87 212.67 734.87 213.06 C 737.71 212.88 740.57 213.00 743.43 212.98 C 744.12 226.52 743.64 240.12 743.67 253.68 C 740.21 253.78 736.75 253.78 733.30 253.66 C 733.18 241.09 733.28 228.52 733.24 215.95 Z" />
<path fill="#313131" opacity="1.00" d=" M 1103.10 213.09 C 1106.49 212.98 1109.89 212.98 1113.30 213.04 C 1113.63 226.61 1113.64 240.22 1113.29 253.79 C 1109.90 253.75 1106.51 253.75 1103.13 253.73 C 1102.89 240.18 1102.95 226.63 1103.10 213.09 Z" />
<path fill="#313131" opacity="1.00" d=" M 1494.10 213.09 C 1497.48 212.98 1500.88 212.98 1504.29 213.03 C 1504.64 226.61 1504.65 240.22 1504.28 253.80 C 1500.89 253.75 1497.51 253.74 1494.13 253.73 C 1493.89 240.18 1493.95 226.63 1494.10 213.09 Z" />
<path fill="#313131" opacity="1.00" d=" M 1224.88 227.00 C 1228.10 220.97 1235.32 217.22 1242.11 218.46 C 1245.05 218.93 1247.29 221.07 1249.50 222.91 C 1249.94 221.52 1250.41 220.14 1250.90 218.76 C 1253.18 218.87 1255.65 218.32 1257.83 219.26 C 1259.00 220.53 1258.29 222.48 1258.54 224.04 C 1258.46 232.04 1258.51 240.03 1258.52 248.03 C 1258.51 251.30 1258.02 254.66 1256.48 257.59 C 1251.13 268.31 1234.26 269.59 1226.58 260.94 C 1227.42 258.43 1229.30 256.48 1230.94 254.46 C 1235.28 257.60 1241.76 258.96 1246.18 255.23 C 1248.26 253.83 1248.28 251.13 1248.84 248.94 C 1242.89 255.64 1231.93 253.96 1226.51 247.50 C 1221.76 241.88 1221.48 233.36 1224.88 227.00 M 1237.19 228.16 C 1231.25 230.78 1230.78 240.43 1236.35 243.69 C 1240.95 246.55 1247.83 243.56 1248.79 238.19 C 1250.60 231.81 1243.30 225.21 1237.19 228.16 Z" />
<path fill="#313131" opacity="1.00" d=" M 1586.46 218.64 C 1592.15 217.27 1598.46 219.44 1602.29 223.83 C 1608.24 230.55 1608.38 241.65 1602.60 248.52 C 1599.14 252.76 1593.49 255.01 1588.08 254.43 C 1585.11 254.14 1583.02 251.90 1581.01 249.97 C 1580.81 254.63 1581.42 259.34 1580.65 263.95 C 1577.94 264.98 1574.88 264.55 1572.07 264.32 C 1570.04 263.91 1570.60 261.47 1570.47 260.01 C 1570.59 247.03 1570.36 234.04 1570.57 221.07 C 1570.25 217.96 1574.00 218.81 1575.98 218.73 C 1578.95 218.29 1579.07 221.97 1580.21 223.91 C 1581.90 221.77 1583.65 219.33 1586.46 218.64 M 1586.20 228.21 C 1580.62 229.77 1578.30 237.35 1582.12 241.73 C 1585.58 246.52 1594.15 245.94 1596.10 240.05 C 1599.15 233.91 1593.12 225.35 1586.20 228.21 Z" />
<path fill="#313131" opacity="1.00" d=" M 751.43 220.28 C 752.58 218.32 755.25 219.07 757.14 219.00 C 759.55 218.65 759.60 221.52 760.32 223.08 C 765.07 217.81 774.04 216.72 779.45 221.58 C 782.89 224.70 784.35 229.47 784.26 234.02 C 784.17 240.57 784.49 247.14 784.00 253.68 C 780.78 253.44 777.02 254.58 774.12 253.06 C 773.72 246.69 774.23 240.29 773.94 233.91 C 773.86 230.04 769.20 226.99 765.68 228.76 C 763.63 229.70 761.93 231.69 761.85 234.01 C 761.37 240.45 762.25 246.96 761.46 253.38 C 758.31 254.10 755.05 253.66 751.86 253.78 C 750.61 248.59 751.50 243.20 751.25 237.93 C 751.38 232.05 750.97 226.14 751.43 220.28 Z" />
<path fill="#313131" opacity="1.00" d=" M 790.78 221.99 C 790.17 218.32 794.70 218.84 797.04 219.03 C 799.15 218.95 799.03 221.62 799.83 222.97 C 804.91 217.58 814.52 216.65 819.72 222.35 C 823.71 226.48 824.00 232.56 823.77 237.97 C 823.56 243.25 824.21 248.58 823.29 253.81 C 820.12 253.74 816.97 253.74 813.81 253.75 C 813.07 247.21 813.77 240.61 813.45 234.05 C 813.45 230.21 809.05 227.17 805.49 228.60 C 803.36 229.50 801.48 231.48 801.36 233.88 C 800.93 240.24 801.62 246.64 801.07 252.99 C 798.27 254.36 793.97 254.16 790.96 253.06 C 790.48 242.73 790.84 232.35 790.78 221.99 Z" />
<path fill="#313131" opacity="1.00" d=" M 841.31 219.44 C 849.86 216.31 860.19 220.81 863.70 229.21 C 866.61 235.78 865.15 244.00 860.07 249.10 C 854.73 254.83 845.48 256.16 838.66 252.39 C 832.35 249.18 828.62 241.91 829.27 234.93 C 829.74 227.98 834.67 221.57 841.31 219.44 M 844.22 228.28 C 840.11 229.86 838.42 234.90 839.51 238.94 C 840.33 243.41 845.47 246.21 849.70 244.58 C 855.39 242.70 856.34 234.48 852.74 230.29 C 850.75 227.81 847.09 227.11 844.22 228.28 Z" />
<path fill="#313131" opacity="1.00" d=" M 867.80 219.15 C 871.20 218.96 874.61 218.97 878.02 219.05 C 880.43 225.60 882.34 232.33 884.55 238.95 C 887.15 232.52 888.24 225.49 891.25 219.27 C 894.66 218.70 898.14 219.05 901.59 219.08 C 901.22 221.09 900.66 223.06 899.83 224.93 C 895.99 233.80 892.42 242.80 888.60 251.68 C 887.74 254.74 883.80 253.90 881.48 253.43 C 877.50 245.52 874.69 237.03 871.14 228.91 C 869.81 225.73 868.32 222.58 867.80 219.15 Z" />
<path fill="#313131" opacity="1.00" d=" M 904.80 233.08 C 906.17 224.26 915.02 217.50 923.90 218.57 C 927.19 218.81 929.78 220.99 932.22 223.00 C 932.73 221.56 933.28 220.12 933.83 218.69 C 936.10 218.87 938.57 218.32 940.73 219.25 C 941.59 220.64 941.12 222.40 941.29 223.96 C 941.19 233.78 941.32 243.60 941.21 253.42 C 937.71 253.51 932.71 255.33 930.98 251.11 C 927.50 253.49 923.34 255.43 919.05 254.20 C 909.47 252.74 902.73 242.47 904.80 233.08 M 919.28 228.33 C 913.20 230.81 912.61 240.50 918.16 243.87 C 923.17 247.17 930.77 243.08 930.84 237.09 C 931.62 231.11 924.85 225.82 919.28 228.33 Z" />
<path fill="#313131" opacity="1.00" d=" M 972.04 219.21 C 974.68 218.86 977.39 218.82 980.05 219.13 C 981.94 219.37 981.72 221.61 981.77 223.01 C 981.68 232.63 981.86 242.26 981.68 251.88 C 981.68 254.31 978.61 253.66 977.03 253.81 C 975.19 253.56 972.77 254.40 971.43 252.78 C 970.97 243.22 971.42 233.62 971.22 224.04 C 971.35 222.43 970.87 220.53 972.04 219.21 Z" />
<path fill="#313131" opacity="1.00" d=" M 999.33 219.43 C 1007.64 216.41 1017.66 220.56 1021.40 228.57 C 1024.57 235.00 1023.43 243.27 1018.58 248.56 C 1013.65 254.29 1004.92 256.11 998.05 253.06 C 991.32 250.33 986.91 243.14 987.22 235.93 C 987.28 228.62 992.34 221.66 999.33 219.43 M 1002.19 228.29 C 998.08 229.90 996.40 234.96 997.53 239.00 C 998.37 243.43 1003.47 246.19 1007.68 244.59 C 1013.38 242.72 1014.34 234.52 1010.75 230.31 C 1008.76 227.80 1005.08 227.10 1002.19 228.29 Z" />
<path fill="#313131" opacity="1.00" d=" M 1028.53 221.95 C 1028.10 217.86 1033.34 218.96 1035.90 219.17 C 1036.74 220.33 1037.04 221.76 1037.59 223.07 C 1042.29 217.84 1051.16 216.73 1056.57 221.48 C 1060.40 224.79 1061.70 230.10 1061.53 234.99 C 1061.37 241.24 1061.80 247.50 1061.21 253.73 C 1057.99 253.35 1054.14 254.74 1051.35 252.95 C 1050.99 246.65 1051.46 240.33 1051.20 234.03 C 1051.21 230.06 1046.41 226.92 1042.85 228.80 C 1041.11 229.61 1039.67 231.17 1039.23 233.05 C 1038.41 239.83 1039.69 246.75 1038.61 253.49 C 1035.45 253.61 1031.49 254.62 1028.79 252.96 C 1028.13 242.66 1028.63 232.28 1028.53 221.95 Z" />
<path fill="#313131" opacity="1.00" d=" M 1121.42 220.35 C 1122.95 218.01 1126.51 219.04 1128.86 219.33 C 1129.52 220.52 1129.84 221.85 1130.34 223.12 C 1134.72 218.16 1142.78 216.86 1148.29 220.67 C 1152.53 223.62 1154.37 229.01 1154.26 234.01 C 1154.17 240.57 1154.48 247.13 1154.01 253.68 C 1150.65 253.83 1147.28 253.86 1143.95 253.38 C 1143.97 246.89 1144.11 240.39 1143.94 233.90 C 1143.84 230.53 1140.37 227.83 1137.11 228.29 C 1134.39 228.84 1131.95 231.20 1131.84 234.06 C 1131.36 240.51 1132.28 247.03 1131.43 253.46 C 1128.27 253.99 1125.06 253.72 1121.89 253.79 C 1120.71 249.60 1121.40 245.22 1121.25 240.95 C 1121.38 234.08 1120.98 227.20 1121.42 220.35 Z" />
<path fill="#313131" opacity="1.00" d=" M 1188.91 222.92 C 1193.67 218.39 1201.17 217.15 1207.15 219.85 C 1214.25 222.90 1219.04 231.27 1216.80 238.89 C 1215.29 239.65 1213.55 239.44 1211.94 239.53 C 1205.62 239.51 1199.30 239.46 1192.99 239.54 C 1193.99 242.09 1195.52 244.77 1198.47 245.33 C 1202.60 246.78 1206.35 244.13 1209.90 242.44 C 1211.87 244.03 1213.39 246.09 1214.91 248.10 C 1212.21 250.90 1208.89 253.31 1204.97 253.97 C 1197.31 255.57 1188.93 251.64 1185.32 244.69 C 1181.41 237.73 1183.04 228.28 1188.91 222.92 M 1193.46 231.67 C 1198.19 231.79 1202.93 231.79 1207.68 231.68 C 1206.05 229.37 1204.08 226.79 1200.96 226.77 C 1197.55 226.35 1195.22 229.21 1193.46 231.67 Z" />
<path fill="#313131" opacity="1.00" d=" M 1265.08 221.04 C 1265.33 218.26 1269.06 219.03 1271.02 219.01 C 1273.11 219.01 1273.32 221.69 1274.24 223.06 C 1276.40 220.97 1278.71 218.43 1281.99 218.47 C 1286.12 218.17 1289.60 220.70 1292.75 223.04 C 1291.61 225.44 1290.61 227.98 1288.84 229.99 C 1287.00 230.81 1285.41 228.89 1283.76 228.34 C 1280.56 226.41 1276.29 229.05 1275.58 232.40 C 1275.22 239.27 1275.85 246.18 1275.33 253.05 C 1273.59 254.34 1271.06 253.58 1269.03 253.81 C 1267.65 253.74 1264.99 254.07 1265.08 252.01 C 1264.93 241.69 1264.94 231.36 1265.08 221.04 Z" />
<path fill="#313131" opacity="1.00" d=" M 1301.63 222.59 C 1307.52 217.45 1317.53 216.72 1322.88 223.07 C 1323.71 221.61 1323.64 218.60 1325.94 218.74 C 1327.90 218.91 1332.10 217.73 1331.95 220.89 C 1332.10 231.69 1331.93 242.50 1332.01 253.30 C 1329.16 253.80 1326.21 254.06 1323.36 253.55 C 1322.80 252.67 1322.30 251.78 1321.85 250.87 C 1314.65 257.65 1302.46 254.09 1297.88 246.00 C 1293.24 238.66 1294.83 228.08 1301.63 222.59 M 1310.25 228.23 C 1303.95 230.62 1303.28 240.58 1309.02 243.96 C 1314.12 247.10 1321.60 242.98 1321.61 236.96 C 1322.25 231.09 1315.75 226.00 1310.25 228.23 Z" />
<path fill="#313131" opacity="1.00" d=" M 1362.07 220.96 C 1361.97 218.32 1365.33 219.13 1367.01 218.93 C 1368.76 219.11 1372.11 218.33 1372.38 220.87 C 1372.66 230.91 1372.46 240.99 1372.47 251.04 C 1372.78 252.63 1371.78 253.98 1370.10 253.72 C 1367.40 253.97 1364.69 253.76 1362.05 253.26 C 1362.00 242.49 1361.90 231.72 1362.07 220.96 Z" />
<path fill="#313131" opacity="1.00" d=" M 1390.36 219.42 C 1398.68 216.42 1408.68 220.57 1412.41 228.58 C 1415.56 235.00 1414.43 243.24 1409.60 248.53 C 1404.98 253.92 1396.99 255.90 1390.33 253.56 C 1383.33 251.31 1378.33 244.35 1378.22 237.04 C 1377.81 229.33 1382.99 221.74 1390.36 219.42 M 1393.20 228.29 C 1386.23 230.97 1386.62 242.98 1394.05 244.76 C 1399.41 246.46 1404.64 241.27 1403.78 235.92 C 1404.13 230.56 1398.26 225.95 1393.20 228.29 Z" />
<path fill="#313131" opacity="1.00" d=" M 1419.49 222.95 C 1419.56 221.52 1419.24 219.63 1421.00 219.12 C 1422.93 218.84 1424.93 218.88 1426.89 219.18 C 1427.75 220.30 1428.02 221.74 1428.57 223.03 C 1433.63 217.49 1443.40 216.67 1448.58 222.46 C 1451.65 225.82 1452.66 230.51 1452.53 234.95 C 1452.35 241.21 1452.84 247.50 1452.18 253.75 C 1448.99 253.29 1444.98 254.84 1442.35 252.86 C 1441.92 246.25 1442.61 239.60 1442.08 232.99 C 1441.07 227.52 1432.89 226.64 1430.71 231.77 C 1428.77 238.78 1431.10 246.44 1429.50 253.49 C 1426.44 253.98 1423.31 253.90 1420.26 253.56 C 1419.17 252.32 1419.59 250.51 1419.47 249.02 C 1419.53 240.33 1419.47 231.64 1419.49 222.95 Z" />
<path fill="#313131" opacity="1.00" d=" M 1512.43 220.28 C 1513.57 218.33 1516.23 219.06 1518.12 218.99 C 1520.57 218.65 1520.62 221.55 1521.29 223.15 C 1525.84 216.81 1536.24 216.96 1540.70 223.35 C 1545.49 218.05 1554.86 216.37 1560.08 221.94 C 1564.59 226.81 1564.07 233.88 1564.00 240.03 C 1563.98 244.56 1564.11 249.10 1563.80 253.64 C 1560.64 253.72 1557.47 253.98 1554.36 253.56 C 1553.22 252.37 1553.94 250.43 1553.72 248.95 C 1553.61 243.33 1554.05 237.69 1553.53 232.10 C 1552.96 228.43 1547.94 226.96 1545.34 229.49 C 1543.13 231.33 1543.52 234.43 1543.47 236.99 C 1543.37 242.58 1543.88 248.20 1543.12 253.76 C 1539.92 253.71 1536.70 254.00 1533.55 253.50 C 1532.50 246.14 1534.11 238.54 1532.76 231.23 C 1531.15 226.70 1524.23 227.75 1523.12 232.09 C 1522.00 239.15 1523.49 246.41 1522.39 253.48 C 1519.22 253.97 1516.01 253.72 1512.84 253.77 C 1511.71 249.28 1512.42 244.60 1512.25 240.02 C 1512.38 233.44 1511.97 226.84 1512.43 220.28 Z" />
<path fill="#313131" opacity="1.00" d=" M 1638.75 219.67 C 1648.75 215.13 1661.55 223.02 1662.01 233.95 C 1661.94 235.79 1662.74 239.20 1660.02 239.37 C 1652.61 239.73 1645.19 239.37 1637.79 239.51 C 1638.61 241.69 1639.68 244.06 1642.06 244.92 C 1646.23 246.87 1650.89 244.93 1654.23 242.24 C 1655.95 244.07 1659.67 246.02 1658.89 248.80 C 1651.89 256.87 1637.93 255.69 1631.72 247.24 C 1624.48 238.60 1628.16 223.71 1638.75 219.67 M 1638.18 231.67 C 1642.89 231.78 1647.61 231.78 1652.34 231.71 C 1650.87 229.38 1648.95 226.92 1645.96 226.79 C 1642.46 226.20 1640.01 229.18 1638.18 231.67 Z" />
<path fill="#313131" opacity="1.00" d=" M 1667.84 221.00 C 1668.16 218.10 1672.01 219.08 1674.05 219.03 C 1676.12 218.95 1676.01 221.63 1676.83 222.95 C 1681.57 216.88 1691.77 216.96 1696.19 223.38 C 1700.89 218.13 1710.06 216.40 1715.35 221.71 C 1719.83 226.26 1719.65 233.10 1719.51 239.04 C 1719.43 243.94 1719.73 248.85 1719.20 253.74 C 1716.03 253.27 1711.93 254.88 1709.35 252.83 C 1708.89 245.90 1709.68 238.93 1709.01 232.02 C 1708.04 226.53 1699.27 227.43 1699.11 232.87 C 1698.68 239.59 1699.34 246.33 1698.84 253.04 C 1696.00 254.60 1692.15 253.42 1688.96 253.72 C 1688.42 246.78 1689.02 239.82 1688.64 232.89 C 1688.57 230.14 1685.83 227.71 1683.08 228.29 C 1680.38 228.67 1678.31 231.22 1678.30 233.91 C 1678.02 240.49 1678.59 247.09 1677.98 253.66 C 1674.59 253.84 1671.19 253.83 1667.84 253.41 C 1667.72 242.61 1667.64 231.80 1667.84 221.00 Z" />
<path fill="#313131" opacity="1.00" d=" M 1733.64 220.72 C 1738.68 217.72 1745.37 217.65 1750.44 220.64 C 1755.47 223.51 1759.14 229.04 1759.05 234.93 C 1759.01 236.53 1759.39 239.36 1757.02 239.37 C 1749.62 239.73 1742.20 239.37 1734.80 239.51 C 1735.61 241.73 1736.72 244.11 1739.15 244.95 C 1743.30 246.85 1747.91 244.90 1751.24 242.24 C 1753.16 243.88 1755.22 245.55 1756.32 247.91 C 1752.13 254.28 1742.83 255.78 1736.08 252.87 C 1729.44 250.14 1724.64 243.20 1724.96 235.95 C 1724.96 229.83 1728.32 223.79 1733.64 220.72 M 1735.18 231.67 C 1739.91 231.79 1744.65 231.78 1749.40 231.70 C 1747.87 229.44 1746.02 226.96 1743.05 226.81 C 1739.51 226.15 1737.03 229.16 1735.18 231.67 Z" />
<path fill="#313131" opacity="1.00" d=" M 1764.77 222.00 C 1764.19 218.30 1768.75 218.84 1771.12 219.03 C 1773.11 218.96 1773.00 221.68 1773.82 222.94 C 1778.46 218.21 1786.49 216.78 1792.01 220.83 C 1796.43 224.04 1798.01 229.80 1797.77 235.05 C 1797.51 241.12 1798.20 247.27 1797.43 253.30 C 1794.39 254.30 1791.00 253.55 1787.85 253.76 C 1786.79 246.61 1788.26 239.27 1787.08 232.16 C 1785.28 226.90 1777.25 227.23 1775.63 232.45 C 1774.60 239.46 1775.81 246.62 1774.96 253.67 C 1771.66 253.49 1768.03 254.50 1764.96 253.07 C 1764.48 242.74 1764.84 232.36 1764.77 222.00 Z" />
<path fill="#313131" opacity="1.00" d=" M 1832.36 223.27 C 1838.24 217.51 1848.82 216.50 1854.52 223.09 C 1854.96 221.64 1855.46 220.20 1855.96 218.76 C 1858.32 218.76 1860.74 218.55 1863.09 219.12 C 1863.58 220.69 1863.48 222.36 1863.54 223.99 C 1863.44 233.80 1863.56 243.61 1863.46 253.42 C 1859.99 253.42 1854.63 255.55 1853.37 250.94 C 1846.43 257.25 1835.00 254.44 1830.06 247.04 C 1824.87 239.97 1825.85 229.19 1832.36 223.27 M 1841.32 228.43 C 1835.17 231.15 1834.97 241.18 1840.96 244.19 C 1846.06 246.91 1853.08 242.78 1853.11 236.97 C 1853.79 230.95 1846.85 225.71 1841.32 228.43 Z" />
<path fill="#313131" opacity="1.00" d=" M 1893.57 221.03 C 1893.28 218.45 1896.39 219.13 1898.02 218.93 C 1899.93 219.16 1903.62 218.17 1903.91 220.99 C 1904.12 231.74 1903.98 242.52 1903.95 253.28 C 1900.63 253.66 1896.76 254.59 1893.75 252.99 C 1893.20 242.37 1893.55 231.67 1893.57 221.03 Z" />
<path fill="#313131" opacity="1.00" d=" M 1921.36 219.51 C 1930.87 215.82 1942.58 221.93 1944.85 231.89 C 1947.54 241.17 1941.36 251.84 1931.91 253.96 C 1922.70 256.58 1912.17 250.48 1910.06 241.10 C 1907.51 232.39 1912.71 222.33 1921.36 219.51 M 1924.24 228.39 C 1917.60 231.16 1917.90 242.63 1924.97 244.66 C 1930.34 246.66 1935.91 241.46 1935.04 236.00 C 1935.46 230.51 1929.34 225.82 1924.24 228.39 Z" />
<path fill="#313131" opacity="1.00" d=" M 1950.77 222.00 C 1950.20 218.32 1954.71 218.83 1957.08 219.03 C 1959.12 218.95 1959.00 221.66 1959.82 222.95 C 1965.07 217.40 1975.13 216.65 1980.17 222.85 C 1984.98 228.44 1983.56 236.21 1983.75 242.97 C 1983.55 246.41 1984.24 250.02 1983.33 253.37 C 1980.28 254.24 1976.95 253.58 1973.81 253.74 C 1972.99 246.87 1973.90 239.94 1973.35 233.06 C 1972.64 229.18 1967.53 226.80 1964.28 229.24 C 1962.34 230.46 1961.13 232.66 1961.28 234.96 C 1961.03 241.19 1961.62 247.46 1960.93 253.68 C 1957.64 253.48 1953.99 254.53 1950.96 253.05 C 1950.48 242.72 1950.84 232.34 1950.77 222.00 Z" />
<path fill="#313131" opacity="1.00" d=" M 413.51 230.14 C 508.58 230.17 603.65 230.16 698.72 230.15 C 698.69 232.84 698.68 235.53 698.69 238.23 C 603.64 238.26 508.58 238.23 413.53 238.24 C 413.52 235.54 413.52 232.84 413.51 230.14 Z" />
<path fill="#313131" opacity="1.00" d=" M 2021.88 230.16 C 2116.92 230.16 2211.96 230.16 2307.00 230.16 L 2307.00 238.24 C 2211.98 238.24 2116.96 238.23 2021.94 238.25 C 2021.90 235.55 2021.88 232.85 2021.88 230.16 Z" />
<path fill="#313131" opacity="1.00" d=" M 1068.59 244.77 C 1071.77 244.73 1074.95 244.74 1078.14 244.83 C 1078.08 250.40 1079.72 257.58 1074.42 261.37 C 1072.67 263.59 1070.70 260.94 1069.13 259.93 C 1070.53 258.19 1071.84 256.35 1071.95 254.04 C 1071.20 253.92 1069.68 253.67 1068.93 253.55 C 1067.99 250.75 1068.64 247.67 1068.59 244.77 Z" />
<path fill="#313131" opacity="1.00" d=" M 1459.25 244.88 C 1462.46 244.71 1465.69 244.70 1468.91 244.87 C 1468.95 248.59 1469.28 252.34 1468.72 256.03 C 1468.14 259.08 1465.65 261.16 1463.14 262.67 C 1462.09 261.75 1461.07 260.88 1460.14 259.88 C 1461.30 258.02 1462.52 256.15 1462.77 253.90 C 1461.90 253.82 1460.17 253.67 1459.30 253.59 C 1459.24 250.68 1459.23 247.78 1459.25 244.88 Z" />
<path fill="#313131" opacity="1.00" d=" M 510.18 298.22 C 516.44 293.04 525.84 292.62 533.08 295.88 C 537.88 297.95 540.59 302.78 541.65 307.70 C 539.08 307.73 536.52 307.74 533.96 307.73 C 531.94 300.13 522.05 297.73 515.96 301.89 C 511.69 304.79 511.52 312.18 516.07 314.91 C 522.69 318.96 531.25 318.66 537.45 323.60 C 543.00 328.00 543.30 336.78 539.30 342.31 C 536.81 345.94 532.62 347.87 528.50 349.00 L 519.33 349.00 C 515.16 348.04 510.90 346.31 508.22 342.81 C 506.16 340.44 505.57 337.28 504.95 334.30 C 507.43 334.26 509.93 334.25 512.42 334.25 C 513.48 337.03 514.46 340.27 517.32 341.73 C 521.34 343.87 526.57 343.88 530.59 341.70 C 534.53 339.53 536.00 334.08 533.78 330.20 C 531.87 327.14 528.21 325.96 524.95 324.96 C 519.60 323.32 513.67 322.46 509.34 318.63 C 503.69 313.32 504.39 303.17 510.18 298.22 Z" />
<path fill="#313131" opacity="1.00" d=" M 698.46 300.43 C 706.56 293.25 718.89 292.01 728.63 296.37 C 734.67 298.96 739.06 304.29 741.63 310.22 C 738.82 310.25 736.02 310.25 733.22 310.23 C 731.27 307.12 729.11 303.90 725.73 302.22 C 717.95 298.18 707.36 299.78 701.60 306.55 C 695.25 314.31 694.94 326.32 700.21 334.73 C 705.57 343.22 717.90 345.40 726.40 340.55 C 729.45 338.87 731.38 335.86 733.22 333.01 C 736.03 332.99 738.85 333.00 741.67 333.04 C 738.16 341.68 730.00 347.95 720.72 349.00 L 712.38 349.00 C 706.31 348.04 700.49 345.20 696.36 340.61 C 686.29 329.56 687.14 310.31 698.46 300.43 Z" />
<path fill="#313131" opacity="1.00" d=" M 1149.86 299.90 C 1158.22 292.94 1170.67 292.07 1180.31 296.80 C 1185.91 299.52 1189.92 304.61 1192.40 310.21 C 1189.59 310.24 1186.80 310.25 1184.02 310.25 C 1182.17 307.42 1180.27 304.44 1177.29 302.69 C 1169.12 297.83 1157.30 299.73 1151.60 307.50 C 1146.12 315.17 1145.92 326.23 1150.67 334.29 C 1155.95 343.19 1168.79 345.58 1177.43 340.36 C 1180.35 338.68 1182.18 335.76 1183.97 333.00 C 1186.77 332.99 1189.58 333.00 1192.40 333.03 C 1188.97 341.66 1180.85 347.82 1171.66 349.00 L 1163.36 349.00 C 1157.26 348.14 1151.40 345.33 1147.24 340.75 C 1136.83 329.54 1137.87 309.59 1149.86 299.90 Z" />
<path fill="#313131" opacity="1.00" d=" M 1207.33 297.30 C 1214.05 292.84 1223.43 292.66 1230.42 296.62 C 1234.54 298.86 1236.60 303.31 1237.66 307.69 C 1235.09 307.73 1232.52 307.74 1229.97 307.73 C 1227.94 300.14 1218.06 297.73 1211.96 301.89 C 1207.70 304.78 1207.52 312.16 1212.05 314.90 C 1218.69 318.98 1227.31 318.65 1233.50 323.65 C 1238.99 328.05 1239.28 336.78 1235.32 342.28 C 1232.83 345.93 1228.63 347.86 1224.51 349.00 L 1215.35 349.00 C 1211.15 348.05 1206.88 346.30 1204.20 342.78 C 1202.14 340.42 1201.57 337.26 1200.95 334.30 C 1203.43 334.26 1205.92 334.25 1208.43 334.25 C 1209.49 337.25 1210.69 340.66 1213.86 342.03 C 1218.43 344.03 1224.54 343.92 1228.33 340.33 C 1231.92 336.99 1231.65 330.25 1227.30 327.66 C 1220.71 323.56 1212.13 324.05 1205.93 319.14 C 1199.25 313.71 1200.32 302.01 1207.33 297.30 Z" />
<path fill="#313131" opacity="1.00" d=" M 1292.26 300.19 C 1300.66 292.93 1313.44 291.99 1323.23 296.88 C 1328.74 299.63 1332.73 304.68 1335.13 310.26 C 1332.27 310.25 1329.42 310.23 1326.58 310.13 C 1324.99 307.57 1323.35 304.92 1320.82 303.21 C 1315.28 299.39 1307.74 299.16 1301.64 301.73 C 1295.91 304.15 1291.90 309.67 1290.70 315.69 C 1289.00 323.75 1290.65 333.29 1297.30 338.75 C 1306.08 346.11 1321.71 344.04 1326.60 333.07 C 1329.45 333.01 1332.31 333.00 1335.18 333.02 C 1331.74 341.58 1323.73 347.69 1314.63 349.00 L 1304.92 349.00 C 1299.63 347.67 1294.44 345.38 1290.61 341.41 C 1279.68 330.44 1280.36 310.20 1292.26 300.19 Z" />
<path fill="#313131" opacity="1.00" d=" M 1352.87 299.79 C 1362.72 291.85 1378.19 291.96 1387.81 300.23 C 1398.50 309.14 1400.22 326.23 1392.62 337.64 C 1388.58 343.77 1381.86 347.77 1374.68 349.00 L 1364.94 349.00 C 1359.85 347.75 1354.85 345.61 1351.10 341.87 C 1339.48 330.89 1340.20 309.68 1352.87 299.79 M 1365.46 300.56 C 1359.92 301.71 1354.95 305.42 1352.50 310.55 C 1348.35 319.42 1349.31 331.39 1356.75 338.26 C 1363.93 344.76 1376.03 344.76 1383.27 338.36 C 1391.03 331.30 1391.90 318.77 1387.21 309.77 C 1383.17 302.13 1373.69 298.58 1365.46 300.56 Z" />
<path fill="#313131" opacity="1.00" d=" M 1463.96 298.89 C 1470.07 293.11 1479.88 292.52 1487.37 295.78 C 1492.27 297.82 1495.06 302.69 1496.16 307.68 C 1493.60 307.73 1491.06 307.76 1488.52 307.78 C 1487.39 305.60 1486.39 303.14 1484.22 301.80 C 1480.45 299.38 1475.30 299.32 1471.35 301.32 C 1466.45 303.72 1465.66 311.62 1470.28 314.71 C 1476.99 319.04 1485.91 318.56 1492.18 323.80 C 1497.62 328.34 1497.74 337.18 1493.57 342.61 C 1491.00 346.14 1486.84 348.02 1482.71 349.00 L 1473.63 349.00 C 1469.62 347.99 1465.55 346.32 1462.89 343.01 C 1460.70 340.62 1460.08 337.36 1459.44 334.30 C 1461.84 334.24 1464.27 334.11 1466.69 334.39 C 1468.25 337.04 1469.07 340.53 1472.16 341.91 C 1476.47 343.98 1482.11 343.90 1486.06 341.03 C 1490.21 338.02 1490.53 330.83 1486.15 327.89 C 1479.60 323.60 1470.96 324.11 1464.66 319.32 C 1458.45 314.52 1458.55 304.26 1463.96 298.89 Z" />
<path fill="#313131" opacity="1.00" d=" M 1714.99 300.95 C 1723.26 293.28 1736.28 291.91 1746.31 296.77 C 1752.02 299.43 1756.12 304.56 1758.65 310.22 C 1755.83 310.25 1753.03 310.25 1750.24 310.23 C 1748.46 307.59 1746.60 304.87 1743.87 303.15 C 1735.05 297.53 1721.75 300.34 1716.59 309.63 C 1711.72 318.42 1712.57 330.82 1720.11 337.88 C 1727.66 344.72 1740.99 344.63 1747.84 336.81 C 1750.78 333.67 1751.89 329.41 1752.80 325.32 C 1745.53 325.18 1738.26 325.28 1731.00 325.25 C 1730.98 323.33 1730.97 321.41 1731.00 319.50 C 1740.78 319.50 1750.57 319.49 1760.36 319.51 C 1760.45 326.05 1759.27 332.88 1755.27 338.23 C 1751.23 344.13 1744.59 347.82 1737.62 349.00 L 1728.82 349.00 C 1723.53 347.74 1718.26 345.60 1714.41 341.64 C 1703.42 331.04 1703.72 311.24 1714.99 300.95 Z" />
<path fill="#313131" opacity="1.00" d=" M 1907.51 300.50 C 1915.78 293.21 1928.45 292.02 1938.27 296.74 C 1944.00 299.40 1948.11 304.54 1950.65 310.22 C 1947.83 310.24 1945.04 310.25 1942.25 310.23 C 1940.46 307.60 1938.61 304.88 1935.88 303.16 C 1927.28 297.68 1914.37 300.17 1908.98 309.01 C 1903.87 317.45 1904.36 329.46 1911.10 336.89 C 1917.95 344.20 1930.75 344.91 1938.31 338.34 C 1942.21 335.10 1943.82 330.12 1944.80 325.33 C 1937.53 325.18 1930.26 325.28 1923.00 325.25 C 1922.98 323.33 1922.97 321.41 1923.00 319.50 C 1932.78 319.50 1942.57 319.49 1952.36 319.51 C 1952.46 326.06 1951.27 332.90 1947.26 338.26 C 1943.21 344.14 1936.58 347.83 1929.62 349.00 L 1921.44 349.00 C 1915.86 347.98 1910.36 345.70 1906.36 341.59 C 1895.25 330.82 1895.76 310.61 1907.51 300.50 Z" />
<path fill="#313131" opacity="1.00" d=" M 2242.62 300.63 C 2250.83 293.29 2263.46 292.01 2273.30 296.64 C 2279.13 299.28 2283.34 304.47 2285.90 310.23 C 2283.06 310.25 2280.26 310.24 2277.47 310.20 C 2275.56 307.31 2273.45 304.38 2270.36 302.69 C 2262.52 298.31 2251.59 299.95 2245.77 306.91 C 2238.98 315.24 2239.10 328.67 2246.23 336.77 C 2253.16 344.32 2266.42 344.98 2273.97 337.98 C 2277.63 334.75 2279.08 329.94 2280.03 325.31 C 2272.74 325.18 2265.45 325.31 2258.17 325.21 C 2258.20 323.28 2258.27 321.36 2258.36 319.44 C 2268.10 319.56 2277.85 319.46 2287.61 319.51 C 2287.62 325.17 2286.92 331.03 2283.97 335.97 C 2280.04 343.07 2272.63 347.87 2264.64 349.00 L 2255.92 349.00 C 2250.63 347.67 2245.35 345.50 2241.52 341.50 C 2230.54 330.76 2231.02 310.73 2242.62 300.63 Z" />
<path fill="#313131" opacity="1.00" d=" M 419.75 294.51 C 425.50 294.51 431.25 294.46 437.00 294.50 C 441.96 294.55 447.24 295.55 451.08 298.92 C 457.59 304.50 457.67 315.64 451.68 321.63 C 449.41 324.01 446.23 325.08 443.23 326.20 C 447.76 333.71 452.27 341.23 456.78 348.76 C 453.91 348.76 451.04 348.75 448.17 348.68 C 443.99 341.22 439.58 333.88 435.29 326.48 C 432.44 326.50 429.59 326.51 426.74 326.54 C 426.76 333.94 426.75 341.35 426.75 348.75 C 424.41 348.75 422.08 348.74 419.74 348.74 C 419.75 330.66 419.74 312.58 419.75 294.51 M 426.74 300.27 C 426.76 307.18 426.74 314.08 426.75 320.99 C 432.11 320.79 437.71 321.69 442.88 319.93 C 450.76 317.17 450.87 303.69 442.75 301.19 C 437.54 299.78 432.07 300.36 426.74 300.27 Z" />
<path fill="#313131" opacity="1.00" d=" M 467.00 294.50 C 476.75 294.49 486.50 294.49 496.25 294.50 C 496.24 296.41 496.24 298.33 496.25 300.25 C 488.84 300.25 481.43 300.27 474.03 300.23 C 473.98 306.32 474.01 312.40 474.00 318.49 C 480.57 318.50 487.15 318.50 493.72 318.49 C 493.74 320.38 493.76 322.28 493.79 324.19 C 487.20 324.31 480.61 324.24 474.03 324.23 C 473.98 330.49 474.01 336.74 474.00 343.00 C 481.41 343.00 488.83 343.00 496.25 343.00 C 496.25 344.91 496.25 346.82 496.26 348.73 C 486.50 348.76 476.75 348.75 467.00 348.74 C 467.00 330.66 467.00 312.58 467.00 294.50 Z" />
<path fill="#313131" opacity="1.00" d=" M 552.50 294.50 C 562.21 294.46 571.92 294.58 581.63 294.43 C 581.70 296.35 581.76 298.26 581.84 300.18 C 574.42 300.30 567.00 300.28 559.59 300.19 C 559.42 306.29 559.53 312.39 559.50 318.49 C 566.10 318.53 572.69 318.42 579.29 318.56 C 579.26 320.45 579.24 322.35 579.23 324.25 C 572.68 324.24 566.12 324.29 559.57 324.21 C 559.43 330.47 559.52 336.73 559.51 343.00 C 566.92 343.00 574.33 343.00 581.74 343.00 C 581.74 344.91 581.74 346.82 581.75 348.74 C 572.00 348.75 562.25 348.76 552.49 348.74 C 552.50 330.66 552.49 312.58 552.50 294.50 Z" />
<path fill="#313131" opacity="1.00" d=" M 608.41 295.20 C 610.87 294.25 613.75 294.90 616.38 294.67 C 623.20 312.60 629.50 330.74 636.08 348.76 C 633.62 348.75 631.17 348.76 628.73 348.80 C 627.15 344.80 625.78 340.73 624.23 336.72 C 616.38 336.76 608.54 336.78 600.70 336.71 C 599.17 340.71 597.74 344.73 596.27 348.74 C 593.80 348.75 591.33 348.75 588.88 348.77 C 595.31 330.89 601.70 312.97 608.41 295.20 M 602.65 331.00 C 609.19 331.00 615.74 331.00 622.29 331.00 C 619.02 321.90 615.75 312.81 612.53 303.70 C 609.05 312.73 605.94 321.90 602.65 331.00 Z" />
<path fill="#313131" opacity="1.00" d=" M 644.75 294.50 C 653.94 295.06 663.67 292.95 672.41 296.55 C 681.52 300.31 683.72 313.23 677.66 320.54 C 675.36 323.59 671.68 324.96 668.22 326.21 C 672.78 333.70 677.27 341.24 681.78 348.76 C 678.90 348.76 676.04 348.74 673.18 348.68 C 668.98 341.22 664.59 333.88 660.28 326.48 C 657.44 326.50 654.59 326.50 651.75 326.52 C 651.74 333.93 651.76 341.34 651.74 348.75 C 649.40 348.75 647.08 348.75 644.75 348.74 C 644.75 330.66 644.74 312.58 644.75 294.50 M 651.75 300.27 C 651.75 307.18 651.74 314.08 651.75 320.99 C 657.13 320.78 662.75 321.70 667.94 319.91 C 675.76 317.10 675.85 303.71 667.78 301.20 C 662.56 299.78 657.08 300.36 651.75 300.27 Z" />
<path fill="#313131" opacity="1.00" d=" M 752.00 294.50 C 754.33 294.50 756.66 294.50 759.00 294.50 C 759.00 302.42 759.00 310.33 759.00 318.25 C 768.26 318.23 777.51 318.30 786.77 318.21 C 786.73 310.31 786.75 302.41 786.75 294.51 C 789.07 294.50 791.40 294.49 793.74 294.50 C 793.75 312.58 793.75 330.67 793.74 348.75 C 791.40 348.75 789.07 348.74 786.75 348.74 C 786.75 340.58 786.75 332.41 786.75 324.25 C 777.51 324.24 768.27 324.28 759.03 324.23 C 758.97 332.40 759.01 340.57 759.00 348.75 C 756.66 348.74 754.33 348.75 752.00 348.75 C 752.00 330.66 752.00 312.58 752.00 294.50 Z" />
<path fill="#313131" opacity="1.00" d=" M 859.13 294.83 C 861.81 294.76 864.51 294.73 867.21 294.70 C 873.87 312.69 880.32 330.76 886.84 348.79 C 884.30 348.76 881.78 348.73 879.25 348.64 C 877.96 344.66 876.49 340.75 875.10 336.81 C 867.36 336.78 859.61 336.60 851.89 336.86 C 849.37 340.15 848.79 344.89 847.02 348.75 C 844.53 348.75 842.04 348.74 839.56 348.74 C 846.08 330.77 852.68 312.83 859.13 294.83 M 853.40 331.00 C 859.95 331.00 866.49 331.00 873.04 331.00 C 869.78 321.93 866.52 312.87 863.32 303.78 C 859.70 312.74 856.72 321.93 853.40 331.00 Z" />
<path fill="#313131" opacity="1.00" d=" M 895.26 294.51 C 897.58 294.49 899.92 294.48 902.27 294.46 C 911.84 308.68 921.08 323.13 930.73 337.29 C 930.78 323.03 930.73 308.77 930.75 294.50 C 933.07 294.50 935.40 294.49 937.74 294.49 C 937.65 306.33 937.95 318.18 937.61 330.02 C 936.82 335.64 937.53 341.34 937.06 346.97 C 935.77 348.97 932.71 347.94 930.78 349.00 L 930.34 349.00 C 929.22 345.91 927.22 343.29 925.41 340.60 C 917.68 328.96 910.11 317.22 902.27 305.66 C 902.23 320.02 902.26 334.38 902.25 348.74 C 899.91 348.74 897.58 348.75 895.26 348.75 C 895.24 330.67 895.24 312.59 895.26 294.51 Z" />
<path fill="#313131" opacity="1.00" d=" M 966.18 294.79 C 968.85 294.75 971.54 294.74 974.23 294.72 C 980.86 312.71 987.33 330.76 993.85 348.80 C 991.29 348.77 988.76 348.72 986.23 348.62 C 984.95 344.62 983.49 340.69 982.04 336.76 C 974.12 336.77 966.20 336.70 958.29 336.80 C 956.93 340.81 955.47 344.78 954.02 348.75 C 951.52 348.75 949.04 348.74 946.56 348.74 C 953.11 330.76 959.65 312.78 966.18 294.79 M 960.40 331.00 C 966.95 331.00 973.49 331.00 980.04 331.00 C 976.80 321.95 973.51 312.92 970.36 303.84 C 966.63 312.73 963.75 321.96 960.40 331.00 Z" />
<path fill="#313131" opacity="1.00" d=" M 1002.50 294.50 C 1004.82 294.50 1007.16 294.50 1009.50 294.50 C 1009.49 310.65 1009.54 326.80 1009.47 342.95 C 1015.83 343.04 1022.18 342.96 1028.54 343.04 C 1028.50 345.02 1028.47 347.01 1028.45 349.00 L 1028.21 349.00 C 1019.65 348.49 1011.07 348.87 1002.50 348.74 C 1002.50 330.66 1002.49 312.58 1002.50 294.50 Z" />
<path fill="#313131" opacity="1.00" d=" M 1031.50 294.52 C 1034.06 294.50 1036.64 294.49 1039.22 294.48 C 1043.79 303.55 1048.19 312.71 1052.59 321.87 C 1057.38 312.90 1061.56 303.62 1066.08 294.52 C 1068.70 294.49 1071.32 294.49 1073.96 294.48 C 1068.43 305.13 1062.84 315.75 1057.27 326.39 C 1056.06 328.37 1056.22 330.74 1056.22 332.97 C 1056.27 338.23 1056.24 343.48 1056.25 348.74 C 1053.91 348.75 1051.57 348.74 1049.25 348.75 C 1049.00 341.86 1049.72 334.88 1048.94 328.05 C 1043.39 316.75 1037.20 305.75 1031.50 294.52 Z" />
<path fill="#313131" opacity="1.00" d=" M 1078.25 294.50 C 1090.41 294.50 1102.58 294.49 1114.75 294.50 C 1114.73 296.41 1114.73 298.33 1114.74 300.25 C 1109.83 300.25 1104.93 300.26 1100.03 300.23 C 1099.96 316.40 1100.02 332.57 1100.00 348.74 C 1097.66 348.74 1095.32 348.74 1093.00 348.75 C 1092.98 332.57 1093.04 316.40 1092.97 300.23 C 1088.06 300.26 1083.16 300.25 1078.27 300.26 C 1078.25 298.33 1078.24 296.41 1078.25 294.50 Z" />
<path fill="#313131" opacity="1.00" d=" M 1123.50 294.50 C 1125.82 294.50 1128.16 294.50 1130.50 294.50 C 1130.51 312.58 1130.50 330.66 1130.51 348.74 C 1128.16 348.74 1125.82 348.74 1123.50 348.75 C 1123.50 330.66 1123.49 312.58 1123.50 294.50 Z" />
<path fill="#313131" opacity="1.00" d=" M 1406.75 294.48 C 1409.14 294.49 1411.55 294.52 1413.97 294.57 C 1423.29 308.81 1432.59 323.08 1442.16 337.17 C 1442.44 322.92 1442.03 308.66 1442.37 294.41 C 1444.65 294.46 1446.94 294.50 1449.25 294.53 C 1449.25 312.61 1449.25 330.69 1449.25 348.77 C 1446.85 348.75 1444.47 348.72 1442.10 348.66 C 1432.78 334.34 1423.51 319.95 1413.80 305.90 C 1413.68 320.18 1413.78 334.47 1413.75 348.75 C 1411.39 348.74 1409.07 348.74 1406.75 348.74 C 1406.75 330.65 1406.75 312.57 1406.75 294.48 Z" />
<path fill="#313131" opacity="1.00" d=" M 1506.75 294.50 C 1509.15 294.50 1511.57 294.50 1514.00 294.50 C 1514.03 306.36 1513.94 318.22 1514.02 330.07 C 1513.98 334.64 1515.98 339.67 1520.38 341.65 C 1524.76 343.58 1530.12 343.60 1534.46 341.51 C 1538.67 339.38 1540.49 334.48 1540.49 330.00 C 1540.53 318.15 1540.46 306.30 1540.50 294.45 C 1542.86 294.52 1545.30 294.25 1547.64 294.83 C 1547.96 302.54 1547.63 310.27 1547.75 317.99 C 1547.63 324.67 1548.38 331.59 1546.05 337.99 C 1544.98 341.27 1542.12 343.43 1539.76 345.76 C 1537.65 347.87 1534.49 347.84 1531.93 349.00 L 1523.48 349.00 C 1514.73 348.34 1507.49 340.75 1507.06 332.03 C 1506.34 319.55 1506.94 307.01 1506.75 294.50 Z" />
<path fill="#313131" opacity="1.00" d=" M 1559.50 294.50 C 1561.82 294.50 1564.15 294.50 1566.50 294.50 C 1566.46 310.64 1566.60 326.77 1566.42 342.91 C 1572.59 343.17 1578.77 342.79 1584.94 343.07 C 1586.87 344.20 1585.45 347.14 1585.80 349.00 L 1585.28 349.00 C 1585.00 348.86 1584.43 348.58 1584.15 348.44 C 1575.94 348.97 1567.71 348.69 1559.50 348.74 C 1559.50 330.66 1559.49 312.58 1559.50 294.50 Z" />
<path fill="#313131" opacity="1.00" d=" M 1589.75 294.50 C 1601.91 294.49 1614.08 294.49 1626.25 294.51 C 1626.23 296.41 1626.23 298.33 1626.25 300.24 C 1621.33 300.25 1616.43 300.26 1611.53 300.23 C 1611.13 316.50 1612.25 332.74 1611.75 349.00 L 1611.25 349.00 C 1610.97 348.85 1610.42 348.56 1610.14 348.41 C 1608.23 348.36 1606.34 348.60 1604.50 348.85 C 1604.50 332.65 1604.49 316.45 1604.50 300.26 C 1599.58 300.25 1594.66 300.25 1589.75 300.25 C 1589.73 298.33 1589.73 296.41 1589.75 294.50 Z" />
<path fill="#313131" opacity="1.00" d=" M 1635.26 294.49 C 1637.57 294.49 1639.91 294.50 1642.25 294.51 C 1642.25 312.58 1642.24 330.66 1642.26 348.73 C 1639.91 348.74 1637.57 348.75 1635.25 348.76 C 1635.25 330.67 1635.24 312.58 1635.26 294.49 Z" />
<path fill="#313131" opacity="1.00" d=" M 1654.26 294.52 C 1656.55 294.49 1658.88 294.47 1661.22 294.44 C 1670.84 308.65 1680.08 323.13 1689.73 337.33 C 1689.77 323.05 1689.73 308.78 1689.75 294.51 C 1692.07 294.50 1694.39 294.49 1696.74 294.49 C 1696.77 304.01 1696.71 313.52 1696.77 323.04 C 1696.93 329.37 1695.85 335.66 1696.23 342.00 C 1696.06 343.85 1696.68 345.96 1695.68 347.62 C 1693.83 348.50 1691.66 348.22 1689.79 349.00 L 1689.34 349.00 C 1687.18 343.73 1683.31 339.43 1680.44 334.57 C 1674.02 324.94 1667.77 315.21 1661.26 305.65 C 1661.23 320.01 1661.26 334.38 1661.25 348.74 C 1658.90 348.74 1656.57 348.74 1654.26 348.75 C 1654.24 330.67 1654.24 312.60 1654.26 294.52 Z" />
<path fill="#313131" opacity="1.00" d=" M 1806.50 294.50 C 1816.20 294.45 1825.91 294.58 1835.62 294.43 C 1835.68 296.34 1835.75 298.26 1835.84 300.18 C 1828.41 300.32 1820.98 300.26 1813.56 300.21 C 1813.44 306.31 1813.51 312.40 1813.51 318.49 C 1820.10 318.54 1826.70 318.40 1833.31 318.58 C 1833.25 320.47 1833.23 322.36 1833.22 324.25 C 1826.62 324.30 1820.02 324.14 1813.44 324.35 C 1813.56 330.57 1813.47 336.78 1813.51 343.00 C 1820.91 343.00 1828.32 343.00 1835.73 343.00 C 1835.73 344.91 1835.71 346.82 1835.76 348.75 C 1826.00 348.75 1816.25 348.76 1806.50 348.74 C 1806.50 330.66 1806.49 312.58 1806.50 294.50 Z" />
<path fill="#313131" opacity="1.00" d=" M 1846.50 294.49 C 1849.19 294.93 1853.21 293.17 1854.77 296.26 C 1863.81 309.98 1872.86 323.70 1881.96 337.38 C 1882.05 323.09 1881.97 308.79 1882.00 294.50 C 1884.32 294.50 1886.65 294.50 1889.00 294.50 C 1889.00 312.58 1888.99 330.66 1889.00 348.74 C 1886.65 348.74 1884.32 348.75 1882.00 348.75 C 1872.49 334.44 1863.29 319.92 1853.50 305.81 C 1853.50 320.12 1853.50 334.43 1853.50 348.74 C 1851.15 348.74 1848.82 348.75 1846.50 348.75 C 1846.50 330.66 1846.49 312.58 1846.50 294.49 Z" />
<path fill="#313131" opacity="1.00" d=" M 1961.75 294.50 C 1964.07 294.50 1966.39 294.49 1968.74 294.49 C 1968.76 312.58 1968.75 330.67 1968.74 348.76 C 1966.38 348.75 1964.06 348.74 1961.74 348.73 C 1961.76 330.65 1961.74 312.58 1961.75 294.50 Z" />
<path fill="#313131" opacity="1.00" d=" M 1980.75 294.49 C 1983.13 294.49 1985.52 294.51 1987.93 294.54 C 1997.30 308.78 2006.58 323.08 2016.16 337.17 C 2016.34 322.97 2016.25 308.76 2016.21 294.56 C 2018.53 294.52 2020.88 294.49 2023.25 294.48 C 2023.26 312.57 2023.24 330.67 2023.25 348.77 C 2020.85 348.75 2018.48 348.72 2016.12 348.67 C 2006.77 334.36 1997.54 319.95 1987.79 305.91 C 1987.69 320.19 1987.78 334.47 1987.74 348.75 C 1985.39 348.75 1983.07 348.75 1980.75 348.74 C 1980.75 330.66 1980.74 312.57 1980.75 294.49 Z" />
<path fill="#313131" opacity="1.00" d=" M 2035.50 294.50 C 2045.27 294.54 2055.04 294.39 2064.81 294.59 C 2064.75 296.45 2064.74 298.33 2064.75 300.20 C 2057.35 300.29 2049.95 300.27 2042.56 300.21 C 2042.44 306.31 2042.51 312.40 2042.51 318.50 C 2049.09 318.52 2055.68 318.45 2062.28 318.54 C 2062.23 320.44 2062.22 322.34 2062.24 324.25 C 2055.62 324.31 2049.02 324.12 2042.42 324.37 C 2042.57 330.58 2042.46 336.79 2042.51 343.00 C 2049.92 343.00 2057.33 343.00 2064.74 343.00 C 2064.73 344.91 2064.71 346.82 2064.75 348.75 C 2054.99 348.75 2045.24 348.76 2035.49 348.74 C 2035.50 330.66 2035.49 312.58 2035.50 294.50 Z" />
<path fill="#313131" opacity="1.00" d=" M 2075.26 294.50 C 2085.00 294.50 2094.75 294.49 2104.50 294.50 C 2104.47 296.41 2104.48 298.33 2104.49 300.25 C 2097.07 300.25 2089.66 300.25 2082.25 300.25 C 2082.24 306.32 2082.26 312.39 2082.23 318.46 C 2088.79 318.52 2095.36 318.52 2101.93 318.46 C 2101.95 320.39 2101.97 322.31 2102.03 324.25 C 2095.43 324.25 2088.84 324.25 2082.25 324.25 C 2082.24 330.50 2082.25 336.74 2082.24 342.98 C 2089.67 343.03 2097.10 342.95 2104.55 343.04 C 2104.49 345.02 2104.46 347.01 2104.46 349.00 L 2104.43 349.00 C 2094.71 348.47 2084.97 348.88 2075.25 348.75 C 2075.25 330.66 2075.24 312.58 2075.26 294.50 Z" />
<path fill="#313131" opacity="1.00" d=" M 2115.26 294.50 C 2121.45 294.55 2127.66 294.39 2133.86 294.54 C 2138.94 294.73 2144.35 296.23 2147.83 300.17 C 2153.51 306.51 2152.62 317.65 2145.80 322.84 C 2143.70 324.45 2141.16 325.27 2138.73 326.19 C 2143.21 333.72 2147.81 341.18 2152.21 348.77 C 2149.38 348.75 2146.61 348.75 2143.82 348.75 C 2139.46 341.36 2135.13 333.96 2130.86 326.52 C 2127.96 326.49 2125.08 326.50 2122.21 326.56 C 2122.29 333.95 2122.23 341.35 2122.25 348.74 C 2119.90 348.75 2117.56 348.75 2115.26 348.75 C 2115.25 330.67 2115.24 312.58 2115.26 294.50 M 2122.25 300.26 C 2122.24 307.16 2122.26 314.07 2122.24 320.98 C 2127.50 320.83 2132.95 321.62 2138.08 320.06 C 2146.01 317.60 2146.54 304.30 2138.74 301.39 C 2133.42 299.67 2127.73 300.41 2122.25 300.26 Z" />
<path fill="#313131" opacity="1.00" d=" M 2162.50 294.50 C 2164.81 294.50 2167.14 294.50 2169.50 294.50 C 2169.50 312.58 2169.50 330.67 2169.50 348.75 C 2167.14 348.75 2164.81 348.74 2162.49 348.74 C 2162.50 330.66 2162.49 312.58 2162.50 294.50 Z" />
<path fill="#313131" opacity="1.00" d=" M 2181.75 294.49 C 2184.11 294.50 2186.49 294.50 2188.90 294.52 C 2198.30 308.74 2207.55 323.07 2217.16 337.15 C 2217.34 322.96 2217.25 308.76 2217.20 294.57 C 2219.53 294.52 2221.88 294.49 2224.25 294.48 C 2224.25 312.58 2224.25 330.67 2224.25 348.77 C 2221.84 348.75 2219.46 348.71 2217.09 348.65 C 2207.82 334.24 2198.32 319.98 2188.83 305.72 C 2188.64 320.06 2188.80 334.41 2188.75 348.75 C 2186.39 348.75 2184.06 348.74 2181.75 348.74 C 2181.75 330.66 2181.74 312.58 2181.75 294.49 Z" />
<path fill="#313131" opacity="1.00" d=" M 803.33 343.15 C 803.91 338.88 811.33 338.49 812.41 342.64 C 813.85 345.02 811.78 347.37 810.19 349.00 L 808.31 349.00 C 804.97 349.59 802.44 346.16 803.33 343.15 Z" />
<path fill="#313131" opacity="1.00" d=" M 1245.96 343.97 C 1245.96 339.75 1252.24 337.91 1254.48 341.52 C 1256.42 344.03 1254.94 347.07 1252.96 349.00 L 1248.73 349.00 C 1247.26 347.71 1245.54 346.15 1245.96 343.97 Z" />
<path fill="#313131" opacity="1.00" d=" M 1766.96 344.00 C 1766.93 339.79 1773.17 337.90 1775.45 341.47 C 1777.42 343.98 1775.96 347.06 1773.98 349.00 L 1769.75 349.00 C 1768.27 347.72 1766.56 346.18 1766.96 344.00 Z" />
<path fill="#313131" opacity="1.00" d=" M 2297.00 349.00 C 2292.57 346.85 2293.75 339.38 2298.98 339.58 C 2304.08 339.51 2305.05 346.54 2301.12 349.00 L 2297.00 349.00 Z" />
</g>
<g id="#ba0000ff">
<path fill="#ba0000" opacity="1.00" d=" M 1014.88 48.62 C 1016.35 49.73 1017.66 51.04 1019.43 51.72 C 1020.47 52.05 1021.52 52.37 1022.59 52.69 C 1023.94 52.95 1025.35 53.13 1026.61 53.78 C 1028.29 54.05 1030.22 53.70 1031.63 54.91 C 1033.20 54.97 1034.78 54.97 1036.38 54.92 C 1037.76 53.67 1039.69 54.06 1041.39 53.79 C 1042.63 53.11 1044.04 52.93 1045.44 52.70 C 1046.79 52.38 1048.07 51.77 1049.39 51.31 C 1050.84 50.49 1052.21 49.52 1053.59 48.56 C 1053.35 87.99 1053.62 127.43 1053.46 166.86 C 1053.58 169.70 1050.22 170.67 1047.93 170.50 C 1038.61 170.47 1029.29 170.60 1019.98 170.43 C 1017.42 170.66 1015.54 168.43 1015.79 165.97 C 1015.70 128.30 1015.76 90.63 1015.76 52.95 C 1015.85 51.45 1015.32 50.03 1014.88 48.62 Z" />
<path fill="#ba0000" opacity="1.00" d=" M 7.30 65.35 C 14.06 57.02 25.40 52.85 35.96 54.70 C 47.80 56.43 57.96 65.91 60.73 77.52 C 63.66 88.45 59.59 100.74 51.01 108.03 C 40.95 117.05 24.81 117.98 13.74 110.25 C 5.72 105.07 1.11 95.95 0.00 86.63 L 0.00 82.75 C 1.10 76.51 3.05 70.21 7.30 65.35 Z" />
</g>
</svg>
